<?xml version="1.0" encoding="UTF-8"?>
<svg id="Layer_2" data-name="Layer 2" xmlns="http://www.w3.org/2000/svg" viewBox="0 0 34 50">
  <defs>
    <style>
      .cls-1 {
        fill: #fd6b5c;
      }
    </style>
  </defs>
  <g id="Outline">
    <g>
      <circle class="cls-1" cx="17" cy="45" r="1"/>
      <path class="cls-1" d="m31,18V3c0-1.65-1.35-3-3-3H6c-1.65,0-3,1.35-3,3v15c-1.65,0-3,1.35-3,3v14c0,1.65,1.35,3,3,3v9c0,1.65,1.35,3,3,3h1c.55,0,1-.45,1-1s-.45-1-1-1h-1c-.55,0-1-.45-1-1v-5h24v5c0,.55-.45,1-1,1H11c-.55,0-1,.45-1,1s.45,1,1,1h17c1.65,0,3-1.35,3-3v-9c1.65,0,3-1.35,3-3v-14c0-1.65-1.35-3-3-3ZM11,2h12v1c0,.55-.45,1-1,1h-10c-.55,0-1-.45-1-1v-1Zm-6,1c0-.55.45-1,1-1h3v1c0,1.65,1.35,3,3,3h10c1.65,0,3-1.35,3-3v-1h3c.55,0,1,.45,1,1v15H5V3Zm7,17v2h-4v-2h4Zm-10,1c0-.55.45-1,1-1h3v2H2v-1Zm27,19H5v-2h24v2Zm3-18h-2c-.55,0-1,.45-1,1s.45,1,1,1h2v11c0,.55-.45,1-1,1H3c-.55,0-1-.45-1-1v-11h24c.55,0,1-.45,1-1s-.45-1-1-1h-12v-2h17c.55,0,1,.45,1,1v1Z"/>
      <path class="cls-1" d="m23.71,26.29c-.39-.39-1.02-.39-1.41,0s-.39,1.02,0,1.41l2.29,2.29-2.29,2.29c-.39.39-.39,1.02,0,1.41.37.37,1.02.39,1.41,0l3-3c.39-.39.39-1.02,0-1.41l-3-3Z"/>
      <path class="cls-1" d="m11.71,26.29c-.39-.39-1.02-.39-1.41,0l-3,3c-.39.39-.39,1.02,0,1.41l3,3c.39.39,1.03.38,1.41,0s.39-1.02,0-1.41l-2.29-2.29,2.29-2.29c.39-.39.39-1.02,0-1.41Z"/>
      <path class="cls-1" d="m18.17,26.45l-4,6c-.31.46-.18,1.08.28,1.39.43.29,1.08.18,1.39-.28l4-6c.31-.46.18-1.08-.28-1.39-.46-.31-1.08-.18-1.39.28Z"/>
      <path class="cls-1" d="m12,9h-4c-.55,0-1,.45-1,1v4c0,.55.45,1,1,1h4c.55,0,1-.45,1-1v-4c0-.55-.45-1-1-1Zm-1,4h-2v-2h2v2Z"/>
      <path class="cls-1" d="m16,11h6c.55,0,1-.45,1-1s-.45-1-1-1h-6c-.55,0-1,.45-1,1s.45,1,1,1Z"/>
      <path class="cls-1" d="m26,13h-10c-.55,0-1,.45-1,1s.45,1,1,1h10c.55,0,1-.45,1-1s-.45-1-1-1Z"/>
    </g>
  </g>
</svg>