<?xml version="1.0" encoding="UTF-8"?>
<svg id="Layer_2" data-name="Layer 2" xmlns="http://www.w3.org/2000/svg" viewBox="0 0 50 50">
  <defs>
    <style>
      .cls-1 {
        fill: #fd6b5c;
      }
    </style>
  </defs>
  <g id="Outline">
    <g>
      <path class="cls-1" d="m47,16h-13.56c.36-.98.56-2.02.56-3.07,0-1.63-.83-3.62-2.55-6.08-.23-.33-.64-.5-1.03-.41-.4.09-.7.4-.77.8l-.07.39c-.17.91-.62,1.73-1.26,2.35.03-.32.04-.64.04-.96,0-1.82-.37-3.59-1.12-5.27l-1.41-3.16c-.13-.3-.4-.51-.72-.57s-.65.04-.89.26c-1.93,1.88-8.22,8.35-8.22,12.65,0,1.05.2,2.09.56,3.07H7c-.55,0-1,.45-1,1s.45,1,1,1h17v3.67l-8.14,2.33H2v-5c0-.55.45-1,1-1s1-.45,1-1-.45-1-1-1c-1.65,0-3,1.35-3,3v28c0,1.65,1.35,3,3,3h21c.55,0,1-.45,1-1s-.45-1-1-1h-11v-6h7.55c1.17.83,2.49,1.48,3.93,1.89l.25.07c.09.03.18.04.27.04s.18-.01.27-.04l.25-.07c1.44-.41,2.76-1.06,3.93-1.89h7.55v6h-9c-.55,0-1,.45-1,1s.45,1,1,1h19c1.65,0,3-1.35,3-3v-28c0-1.65-1.35-3-3-3Zm-28.27,0c-.47-.95-.73-2-.73-3.07,0-2.53,3.36-6.86,6.6-10.19l.82,1.82c.62,1.42.94,2.92.94,4.46,0,.89-.11,1.79-.33,2.67-.09.35.02.73.29.97.27.25.65.34,1,.22,1.58-.53,2.87-1.66,3.61-3.1.86,1.54,1.07,2.54,1.07,3.15,0,1.07-.26,2.12-.73,3.07h-12.54Zm-5.73,10h2v5.33c0,.22.02.45.03.67h-2.03v-6Zm-11,0h9v6H2v-6Zm9,22H3c-.55,0-1-.45-1-1v-5h9v6Zm-9-8v-6h13.29c.47,2.25,1.52,4.31,3.02,6H2Zm23,1.96c-4.71-1.36-8-5.73-8-10.63v-5.58l8-2.28,8,2.28v5.58c0,4.9-3.29,9.27-8,10.63Zm23,5.04c0,.55-.45,1-1,1h-8v-6h9v5Zm0-7h-16.31c1.5-1.69,2.55-3.75,3.02-6h13.29v6Zm-13.03-8c.01-.22.03-.45.03-.67v-5.33h2v6h-2.03Zm13.03,0h-9v-6h9v6Zm0-8h-13.86l-8.14-2.33v-3.67h21c.55,0,1,.45,1,1v5Z"/>
      <path class="cls-1" d="m30.27,27.05l-5-1.43c-.18-.05-.37-.05-.55,0l-5,1.43c-.43.12-.73.52-.73.96v3.31c0,3.62,2.25,6.99,5.61,8.38,0,0,0,0,0,0,0,0,0,0,0,0,.12.05.25.08.38.08s.26-.03.38-.08c0,0,0,0,0,0,0,0,0,0,.01,0,3.35-1.39,5.6-4.75,5.6-8.37v-3.31c0-.45-.3-.84-.73-.96Zm-6.27,10.03c-1.84-1.31-3-3.46-3-5.76v-2.56l3-.86v9.17Zm5-5.76c0,2.29-1.16,4.45-3,5.76v-9.17l3,.86v2.56Z"/>
    </g>
  </g>
</svg>