<?xml version="1.0" encoding="UTF-8"?>
<svg id="Layer_2" data-name="Layer 2" xmlns="http://www.w3.org/2000/svg" viewBox="0 0 40 50">
  <defs>
    <style>
      .cls-1 {
        fill: #fd6b5c;
      }
    </style>
  </defs>
  <g id="Outline">
    <g>
      <path class="cls-1" d="m37,0H3C1.35,0,0,1.35,0,3v24c0,1.65,1.35,3,3,3h7.21c-.05.09-.08.18-.13.27-.74,1.28-2.06,2.04-3.54,2.04-.55,0-1,.45-1,1v5.38c0,.55.45,1,1,1,1.48,0,2.8.76,3.54,2.04.73,1.28.73,2.8-.01,4.08-.13.23-.16.5-.1.76.07.25.24.47.47.6l4.66,2.7c.23.13.51.16.76.1.26-.07.48-.24.61-.47.74-1.28,2.06-2.04,3.53-2.04s2.79.76,3.53,2.04c.29.49.88.62,1.37.37l4.66-2.7c.23-.13.4-.35.47-.6.06-.26.03-.53-.1-.76-.74-1.28-.74-2.8-.01-4.08.74-1.28,2.06-2.04,3.54-2.04.55,0,1-.45,1-1v-5.38c0-.55-.45-1-1-1-1.48,0-2.8-.76-3.54-2.04-.05-.09-.08-.18-.13-.27h7.21c1.65,0,3-1.35,3-3V3c0-1.65-1.35-3-3-3ZM2,14h4v10H2v-10Zm30.46,20.23v3.54c-1.79.29-3.34,1.35-4.27,2.96s-1.07,3.48-.43,5.17l-3.07,1.77c-1.14-1.4-2.83-2.21-4.69-2.21s-3.55.81-4.69,2.21l-3.07-1.77c.64-1.69.5-3.56-.43-5.17s-2.48-2.67-4.27-2.96v-3.54c1.79-.29,3.34-1.35,4.27-2.96.93-1.61,1.07-3.48.43-5.17l3.07-1.77c1.14,1.4,2.83,2.21,4.69,2.21s3.55-.81,4.69-2.21l3.07,1.77c-.64,1.69-.5,3.56.43,5.17.93,1.61,2.48,2.67,4.27,2.96Zm5.54-10.23h-4v-10h4v10Zm0-16H12c-.55,0-1,.45-1,1s.45,1,1,1h26v2h-5c-.55,0-1,.45-1,1v12c0,.55.45,1,1,1h5v1c0,.55-.45,1-1,1h-7.61c.03-.62.21-1.24.54-1.81.13-.23.16-.5.1-.76-.07-.25-.24-.47-.47-.6l-4.66-2.7c-.23-.13-.51-.16-.76-.1-.26.07-.48.24-.61.47-.74,1.28-2.06,2.04-3.53,2.04s-2.79-.76-3.53-2.04c-.13-.23-.35-.4-.61-.47-.25-.06-.53-.03-.76.1l-4.66,2.7c-.23.13-.4.35-.47.6-.06.26-.03.53.1.76.33.57.51,1.19.54,1.81H3c-.55,0-1-.45-1-1v-1h5c.55,0,1-.45,1-1v-12c0-.55-.45-1-1-1H2v-2h6c.55,0,1-.45,1-1s-.45-1-1-1H2V3c0-.55.45-1,1-1h34c.55,0,1,.45,1,1v5Z"/>
      <circle class="cls-1" cx="36" cy="5" r="1"/>
      <circle class="cls-1" cx="32" cy="5" r="1"/>
      <path class="cls-1" d="m20,28c-1.32,0-2.58.31-3.73.92-.88.47-.74,1.92.4,1.92.17,0,.33-.04.48-.12.87-.48,1.83-.72,2.85-.72,3.31,0,6,2.69,6,6s-2.69,6-6,6-6-2.69-6-6c0-1.02.24-1.98.72-2.85.26-.48.09-1.09-.4-1.36-.48-.26-1.09-.09-1.36.4-.64,1.17-.96,2.45-.96,3.81,0,4.41,3.59,8,8,8s8-3.59,8-8-3.59-8-8-8Z"/>
      <path class="cls-1" d="m16,20c1.65,0,3-1.35,3-3v-4c0-.55-.45-1-1-1s-1,.45-1,1v4c0,.55-.45,1-1,1s-1-.45-1-1v-4c0-.55-.45-1-1-1s-1,.45-1,1v4c0,1.65,1.35,3,3,3Z"/>
      <path class="cls-1" d="m22,18c-.55,0-1,.45-1,1s.45,1,1,1h4c.55,0,1-.45,1-1s-.45-1-1-1h-1v-4h1c.55,0,1-.45,1-1s-.45-1-1-1h-4c-.55,0-1,.45-1,1s.45,1,1,1h1v4h-1Z"/>
    </g>
  </g>
</svg>