<?xml version="1.0" encoding="UTF-8"?>
<svg id="Layer_2" data-name="Layer 2" xmlns="http://www.w3.org/2000/svg" viewBox="0 0 46 50">
  <defs>
    <style>
      .cls-1 {
        fill: #fd6b5c;
      }
    </style>
  </defs>
  <g id="Outline">
    <g>
      <path class="cls-1" d="m43,8.06h-3V3c0-1.65-1.35-3-3-3H9c-1.65,0-3,1.35-3,3v5.06h-3c-1.65,0-3,1.32-3,2.94v26.06c0,1.62,1.35,2.94,3,2.94h12c0,1.54-.77,2.98-2.05,3.83l-.25.17h-.7c-1.65,0-3,1.35-3,3v2c0,.55.45,1,1,1h26c.55,0,1-.45,1-1v-2c0-1.65-1.35-3-3-3h-.7l-.25-.17c-1.28-.85-2.05-2.29-2.05-3.83h12c1.65,0,3-1.32,3-2.94V11c0-1.62-1.35-2.94-3-2.94ZM20,2h17c.55,0,1,.45,1,1v1h-18v-2Zm-6,0h4v2h-4v-2Zm-6,1c0-.55.45-1,1-1h3v2h-4v-1Zm26,43c.55,0,1,.45,1,1v1H11v-1c0-.55.45-1,1-1h22Zm-18.36-2c.87-1.13,1.36-2.53,1.36-4h12c0,1.47.49,2.87,1.36,4h-14.72Zm28.36-12H11c-.55,0-1,.45-1,1s.45,1,1,1h11v1c0,.55.45,1,1,1s1-.45,1-1v-1h20v3.06c0,.52-.45.94-1,.94H3c-.55,0-1-.42-1-.94v-3.06h5c.55,0,1-.45,1-1s-.45-1-1-1H2V11c0-.52.45-.94,1-.94h3v6.94c0,1.65,1.35,3,3,3h6c.55,0,1-.45,1-1s-.45-1-1-1h-6c-.55,0-1-.45-1-1V6h30v11c0,.55-.45,1-1,1h-18c-.55,0-1,.45-1,1s.45,1,1,1h18c1.65,0,3-1.35,3-3v-6.94h3c.55,0,1,.42,1,.94v21Z"/>
      <path class="cls-1" d="m30.59,12l-2.29,2.29c-.41.41-.35,1.04,0,1.41.38.4,1.03.39,1.41,0l3-3c.39-.39.39-1.02,0-1.41l-3-3c-.39-.39-1.02-.39-1.41,0s-.39,1.02,0,1.41l2.29,2.29Z"/>
      <path class="cls-1" d="m17,15.99c.87,0,1.33-1.07.71-1.69l-2.29-2.29,2.29-2.29c.39-.39.39-1.02,0-1.41s-1.02-.39-1.41,0l-3,3c-.39.39-.39,1.02,0,1.41l3,3c.18.18.44.28.71.28Z"/>
      <path class="cls-1" d="m21,15.99c.32,0,.64-.15.83-.44l4-6c.31-.46.18-1.08-.28-1.39-.46-.31-1.08-.18-1.39.28,0,0-3.99,5.98-4,6-.42.64.07,1.55.83,1.55Z"/>
      <path class="cls-1" d="m31,22h-15c-.22,0-.43.07-.6.2l-4,3c-.25.19-.4.48-.4.8s.15.61.4.8l4,3c.17.13.38.2.6.2h15c2.21,0,4-1.79,4-4s-1.79-4-4-4Zm-3,6h-11.67l-2.67-2,2.67-2h11.67v4Zm3,0h-1v-4h1c1.1,0,2,.9,2,2s-.9,2-2,2Z"/>
    </g>
  </g>
</svg>