<?xml version="1.0" encoding="UTF-8"?>
<svg id="Layer_2" data-name="Layer 2" xmlns="http://www.w3.org/2000/svg" viewBox="0 0 42.88 50">
  <defs>
    <style>
      .cls-1 {
        fill: #fd6b5c;
      }
    </style>
  </defs>
  <g id="Outline">
    <g>
      <path class="cls-1" d="m9.51,9.96c-3.04,0-5.51,2.48-5.51,5.52,0,.55.45,1,1,1s1-.45,1-1c0-1.94,1.57-3.52,3.51-3.52.55,0,1-.45,1-1s-.45-1-1-1Z"/>
      <path class="cls-1" d="m33.44,29c1.65,0,3-1.35,3-3v-1.29c3.78-.99,6.44-4.38,6.44-8.38,0-3.1-1.61-5.89-4.25-7.45v-.21c0-4.78-3.89-8.67-8.67-8.67-3.81,0-7.13,2.49-8.26,6.04-1.25-.17-2.41-.06-3.53.27-2.48-1.46-5.61-1.58-8.17-.33-.16-.01-.33-.02-.49-.02C4.27,5.96,0,10.23,0,15.48c0,4.11,2.61,7.71,6.44,9.01v1.51c0,1.65,1.35,3,3,3h2v2h-2c-1.65,0-3,1.35-3,3v4c0,1.65,1.35,3,3,3v1.59l-1.71,1.71c-.4-.19-.83-.3-1.29-.3-1.65,0-3,1.35-3,3s1.35,3,3,3,3-1.35,3-3c0-.46-.11-.89-.3-1.29l2.01-2c.18-.19.29-.44.29-.71v-2h9v3.18c-1.16.42-2,1.52-2,2.82,0,1.65,1.35,3,3,3s3-1.35,3-3c0-1.3-.84-2.4-2-2.82v-3.18h2c.55,0,1-.45,1-1s-.45-1-1-1h-15c-.55,0-1-.45-1-1v-4c0-.55.45-1,1-1h24c.55,0,1,.45,1,1v4c0,.55-.45,1-1,1h-5c-.55,0-1,.45-1,1s.45,1,1,1h3v2c0,.27.11.52.29.71l2.01,2c-.19.4-.3.83-.3,1.29,0,1.65,1.35,3,3,3s3-1.35,3-3-1.35-3-3-3c-.46,0-.89.11-1.29.3l-1.71-1.71v-1.59c1.65,0,3-1.35,3-3v-4c0-1.65-1.35-3-3-3h-2v-2h2ZM6.44,48c-.55,0-1-.45-1-1s.45-1,1-1c.27,0,.52.11.7.29h.01c.18.19.29.44.29.71,0,.55-.45,1-1,1Zm15-2c.55,0,1,.45,1,1s-.45,1-1,1-1-.45-1-1,.45-1,1-1Zm14.29.3h.01c.18-.19.43-.3.7-.3.55,0,1,.45,1,1s-.45,1-1,1-1-.45-1-1c0-.27.11-.52.29-.7Zm-6.29-15.3H13.44v-2h16v2Zm-20-4c-.55,0-1-.45-1-1v-4c0-.55.45-1,1-1h7c.55,0,1-.45,1-1s-.45-1-1-1h-7c-1.65,0-3,1.35-3,3v.34c-2.67-1.19-4.44-3.85-4.44-6.86,0-4.15,3.37-7.52,7.51-7.52.2,0,.4.02.6.04.2.01.39-.03.56-.12,2.12-1.13,4.78-.99,6.82.36.26.18.6.22.89.11,1.17-.43,2.36-.53,3.83-.19.27.07.55.02.77-.13.23-.15.39-.38.44-.65.6-3.12,3.35-5.38,6.54-5.38,3.68,0,6.67,2.99,6.67,6.67,0,.22-.02.44-.04.67-.05.42.17.82.55,1.01,2.31,1.13,3.74,3.42,3.74,5.98,0,2.89-1.81,5.37-4.44,6.29v-.62c0-1.65-1.35-3-3-3h-13c-.55,0-1,.45-1,1s.45,1,1,1h13c.55,0,1,.45,1,1v4c0,.55-.45,1-1,1H9.44Z"/>
      <path class="cls-1" d="m19.44,23h-8c-.55,0-1,.45-1,1s.45,1,1,1h8c.55,0,1-.45,1-1s-.45-1-1-1Z"/>
      <circle class="cls-1" cx="31.44" cy="24" r="1"/>
      <path class="cls-1" d="m27.44,23h-2c-.55,0-1,.45-1,1s.45,1,1,1h2c.55,0,1-.45,1-1s-.45-1-1-1Z"/>
      <path class="cls-1" d="m32.44,36c0-.55-.45-1-1-1h-8c-.55,0-1,.45-1,1s.45,1,1,1h8c.55,0,1-.45,1-1Z"/>
      <circle class="cls-1" cx="11.44" cy="36" r="1"/>
      <path class="cls-1" d="m15.44,35c-.55,0-1,.45-1,1s.45,1,1,1h2c.55,0,1-.45,1-1s-.45-1-1-1h-2Z"/>
    </g>
  </g>
</svg>