<?xml version="1.0" encoding="UTF-8"?>
<svg id="Layer_2" data-name="Layer 2" xmlns="http://www.w3.org/2000/svg" viewBox="0 0 38 38">
  <defs>
    <style>
      .cls-1 {
        fill: #fd6b5c;
      }
    </style>
  </defs>
  <g id="Outline">
    <g>
      <path class="cls-1" d="m34.64,27.34l-1.8-.53c.72-.73,1.16-1.72,1.16-2.81,0-2.21-1.79-4-4-4s-4,1.79-4,4c0,1.09.44,2.08,1.16,2.81l-1.78.53c-.31.09-.6.22-.88.38-.28-.15-.56-.29-.86-.38l-1.8-.53c.72-.73,1.16-1.72,1.16-2.81,0-2.21-1.79-4-4-4s-4,1.79-4,4c0,1.09.44,2.08,1.16,2.81l-1.8.53c-.3.09-.58.23-.85.38-.28-.16-.57-.29-.87-.38l-1.8-.53c.72-.73,1.16-1.72,1.16-2.81,0-2.21-1.79-4-4-4s-4,1.79-4,4c0,1.09.44,2.08,1.16,2.81l-1.79.53c-1.99.59-3.37,2.64-3.37,5v4.66c0,.55.45,1,1,1h36c.55,0,1-.45,1-1v-4.66c0-2.36-1.38-4.41-3.36-5Zm-26.64-5.34c1.1,0,2,.9,2,2s-.9,2-2,2c-.55,0-1.05-.22-1.41-.59-.37-.36-.59-.86-.59-1.41,0-1.1.9-2,2-2Zm3,10.34v3.66H2v-3.66c0-1.45.81-2.75,1.94-3.08l3.06-.92v1.66c0,.55.45,1,1,1s1-.45,1-1v-1.66l2.92.88c-.58.87-.92,1.96-.92,3.12Zm8-10.34c1.1,0,2,.9,2,2s-.9,2-2,2c-.55,0-1.05-.22-1.41-.59-.37-.36-.59-.86-.59-1.41,0-1.1.9-2,2-2Zm.89,8.69l-.89.9-.89-.9.64-2.57.25-.08.25.08.64,2.57Zm5.11,5.31h-12v-3.66c0-1.45.81-2.75,1.94-3.08l1.58-.48-.49,1.98c-.09.34,0,.7.26.95l2,2c.2.19.45.29.71.29s.51-.1.71-.29l2-2c.25-.25.35-.61.26-.95l-.49-1.98,1.59.48c1.12.33,1.93,1.63,1.93,3.08v3.66Zm5-14c1.1,0,2,.9,2,2s-.9,2-2,2c-.55,0-1.05-.22-1.41-.59-.37-.36-.59-.86-.59-1.41,0-1.1.9-2,2-2Zm6,14h-9v-3.66c0-1.16-.34-2.25-.92-3.13l2.92-.87v1.66c0,.55.45,1,1,1s1-.45,1-1v-1.66l3.07.92c1.12.33,1.93,1.63,1.93,3.08v3.66Z"/>
      <path class="cls-1" d="m1,18h14c.55,0,1-.45,1-1v-4.66c0-2.35-1.38-4.41-3.36-5l-1.79-.54c.71-.72,1.16-1.71,1.16-2.81,0-2.21-1.79-4-4-4s-4,1.79-4,4c0,1.09.44,2.08,1.16,2.81l-1.79.54c-1.98.59-3.36,2.65-3.36,5v4.66c0,.55.45,1,1,1Zm7.89-7.31l-.89.89-.89-.89.64-2.58.25-.07.25.07.64,2.58Zm-.89-8.69c1.1,0,2,.9,2,2s-.9,2-2,2h0c-1.1,0-2-.9-2-2s.9-2,2-2ZM2,12.34c0-1.45.81-2.75,1.94-3.08l1.59-.47-.49,1.97c-.08.34.01.7.26.95l2,2c.2.2.45.29.71.29s.51-.1.71-.29l2-2c.25-.25.35-.61.26-.95l-.49-1.97,1.59.48c1.12.33,1.93,1.63,1.93,3.08v3.66H2v-3.66Z"/>
      <path class="cls-1" d="m36,0h-16c-1.1,0-2,.9-2,2v14c0,1.1.9,2,2,2h16c1.1,0,2-.9,2-2v-3c0-.55-.45-1-1-1s-1,.45-1,1v3h-16V2h16v3c0,.55.45,1,1,1s1-.45,1-1v-3c0-1.1-.9-2-2-2Z"/>
      <path class="cls-1" d="m33,4h-10c-.55,0-1,.45-1,1s.45,1,1,1h10c.55,0,1-.45,1-1s-.45-1-1-1Z"/>
      <path class="cls-1" d="m33,8h-10c-.55,0-1,.45-1,1s.45,1,1,1h10c.55,0,1-.45,1-1s-.45-1-1-1Z"/>
      <path class="cls-1" d="m33,12h-10c-.55,0-1,.45-1,1s.45,1,1,1h10c.55,0,1-.45,1-1s-.45-1-1-1Z"/>
      <circle class="cls-1" cx="37" cy="9" r="1"/>
    </g>
  </g>
</svg>