<?xml version="1.0" encoding="UTF-8"?>
<svg id="Layer_2" data-name="Layer 2" xmlns="http://www.w3.org/2000/svg" viewBox="0 0 38 38">
  <defs>
    <style>
      .cls-1 {
        fill: #fd6b5c;
      }
    </style>
  </defs>
  <g id="Outline">
    <g>
      <path class="cls-1" d="m15.71,7.29c-.96-.96-2.38-1.29-3.71-1.29-.55,0-1,.45-1,1s.45,1,1,1c.86,0,1.65.06,2.29.71.39.39,1.03.39,1.41,0,.39-.39.39-1.02,0-1.41Z"/>
      <path class="cls-1" d="m15.71,14.29c-.96-.96-2.38-1.29-3.71-1.29-.55,0-1,.45-1,1s.45,1,1,1c.86,0,1.65.06,2.29.71.39.39,1.03.39,1.41,0s.39-1.02,0-1.41Z"/>
      <path class="cls-1" d="m14.29,21.29c-.65.65-1.44.71-2.29.71-.55,0-1,.45-1,1s.45,1,1,1c1.37,0,2.67-.26,3.71-1.29.39-.39.39-1.02,0-1.41s-1.02-.39-1.41,0Z"/>
      <path class="cls-1" d="m9,10c-1.4,0-2.67.26-3.7,1.28-.39.39-.4,1.02,0,1.41.38.38,1.03.39,1.41,0,.64-.63,1.45-.7,2.3-.7.55,0,1-.45,1-1s-.45-1-1-1Z"/>
      <path class="cls-1" d="m6.7,19.7c.63-.63,1.46-.7,2.3-.7.55,0,1-.45,1-1s-.45-1-1-1c-1.4,0-2.67.26-3.7,1.28-.39.39-.4,1.02,0,1.41.39.39,1.03.39,1.41,0Z"/>
      <path class="cls-1" d="m14.29,29.29c-.64.64-1.44.71-2.29.71-.55,0-1,.45-1,1s.45,1,1,1c1.4,0,2.68-.26,3.71-1.29.39-.39.39-1.02,0-1.41s-1.02-.39-1.41,0Z"/>
      <path class="cls-1" d="m10,26c-.86,0-1.65-.06-2.3-.7-.39-.39-1.03-.38-1.41,0-.39.39-.38,1.03,0,1.41,1.02,1.01,2.32,1.28,3.7,1.28.55,0,1-.45,1-1s-.45-1-1-1Z"/>
      <path class="cls-1" d="m30,10.82v2.18h-2c-.55,0-1,.45-1,1s.45,1,1,1h2c1.1,0,2-.9,2-2v-2.18c1.16-.41,2-1.51,2-2.82,0-1.65-1.35-3-3-3s-3,1.35-3,3c0,1.3.84,2.4,2,2.82Zm1-3.82c.55,0,1,.45,1,1s-.45,1-1,1-1-.45-1-1,.45-1,1-1Z"/>
      <path class="cls-1" d="m32,27.18v-2.18c0-1.1-.9-2-2-2h-4c-.55,0-1,.45-1,1s.45,1,1,1h4v2.18c-1.16.41-2,1.51-2,2.82,0,1.65,1.35,3,3,3s3-1.35,3-3c0-1.3-.84-2.4-2-2.82Zm-1,3.82c-.55,0-1-.45-1-1s.45-1,1-1,1,.45,1,1-.45,1-1,1Z"/>
      <path class="cls-1" d="m35,16c-1.3,0-2.4.84-2.82,2h-12.18v-3h4c.55,0,1-.45,1-1s-.45-1-1-1h-4v-3h4c1.1,0,2-.9,2-2v-2.18c1.16-.41,2-1.51,2-2.82,0-1.65-1.35-3-3-3s-3,1.35-3,3c0,1.3.84,2.4,2,2.82v2.18h-4V1c0-.55-.45-1-1-1-1.81,0-3.48.8-4.61,2.16-.46-.11-.92-.16-1.39-.16-2.59,0-4.84,1.64-5.66,4.01-3.32-.19-6.34,2.68-6.34,5.99,0,1,.24,1.96.7,2.82-1.08,1.11-1.7,2.62-1.7,4.18,0,1.92.91,3.69,2.42,4.81-.27.7-.42,1.44-.42,2.19,0,2.16,1.16,4.14,3,5.21.11,3.21,2.76,5.79,6,5.79,1.24,0,2.44-.39,3.45-1.09,1.13,1.31,2.79,2.09,4.55,2.09.55,0,1-.45,1-1v-7h4v2.18c-1.16.41-2,1.51-2,2.82,0,1.65,1.35,3,3,3s3-1.35,3-3c0-1.3-.84-2.4-2-2.82v-2.18c0-1.1-.9-2-2-2h-4v-3h2c.55,0,1-.45,1-1s-.45-1-1-1h-2v-3h12.18c.41,1.16,1.51,2,2.82,2,1.65,0,3-1.35,3-3s-1.35-3-3-3ZM25,2c.55,0,1,.45,1,1s-.45,1-1,1-1-.45-1-1,.45-1,1-1Zm0,34c-.55,0-1-.45-1-1s.45-1,1-1,1,.45,1,1-.45,1-1,1Zm-7-.13c-1.04-.27-1.95-.96-2.5-1.92-.32-.58-1.14-.67-1.6-.2-.76.8-1.79,1.25-2.9,1.25-2.31,0-4.17-2.03-3.98-4.32.03-.43-.21-.83-.6-1-1.47-.64-2.42-2.08-2.42-3.68,0-.73.19-1.42.57-2.05.29-.49.11-1.14-.4-1.4-1.34-.69-2.17-2.05-2.17-3.55,0-1.25.6-2.45,1.6-3.2.44-.33.53-.97.2-1.4-.52-.69-.8-1.52-.8-2.4,0-2.48,2.42-4.46,4.86-3.91.55.13,1.11-.24,1.21-.8.33-1.91,1.99-3.29,3.93-3.29.48,0,.96.09,1.42.26.45.17.95,0,1.2-.4.55-.88,1.4-1.49,2.37-1.74v33.75Zm17-15.87c-.55,0-1-.45-1-1s.45-1,1-1,1,.45,1,1-.45,1-1,1Z"/>
    </g>
  </g>
</svg>